<svg xmlns="http://www.w3.org/2000/svg" viewBox="0 0 900 620" role="img" aria-labelledby="title desc">
  <title id="title">Cafetera Andina Kit</title>
  <desc id="desc">A product-style illustration of a pour-over coffee kit.</desc>
  <rect width="900" height="620" fill="#f6f8f7"/>
  <rect x="70" y="70" width="760" height="480" rx="28" fill="#dcefeb"/>
  <circle cx="705" cy="155" r="86" fill="#6fb4a8" opacity=".35"/>
  <path d="M283 202h270l-44 225H327z" fill="#ffffff" stroke="#1f4d49" stroke-width="16" stroke-linejoin="round"/>
  <path d="M337 202h160l-24-66H361z" fill="#b9d9d3" stroke="#1f4d49" stroke-width="16" stroke-linejoin="round"/>
  <path d="M337 428h172l38 78H299z" fill="#265e57"/>
  <path d="M597 281c60 2 91 32 84 78-7 44-50 67-118 58" fill="none" stroke="#1f4d49" stroke-width="18" stroke-linecap="round"/>
  <path d="M380 269h87M369 327h109" stroke="#6fb4a8" stroke-width="14" stroke-linecap="round"/>
  <rect x="162" y="423" width="166" height="86" rx="18" fill="#d98745"/>
  <path d="M180 423c0-42 28-70 68-70s68 28 68 70" fill="none" stroke="#8e4a22" stroke-width="14" stroke-linecap="round"/>
</svg>
